# xmcd
# 
# Track frame offsets:
#     150
#     20300
#     31828
# 
# Disc length: 552
# 
# Revision: 1
# Processed by: cddbd v1.5.2PL0 Copyright (c) Steve Scherf et al.
# Submitted via: fre:ac v1.0.27
# 
DISCID=15022603
DTITLE=R.E.M. - R 7
DYEAR=1991
DGENRE=Top 40
TTITLE0=Losing My Religion
TTITLE1=Rotary Eleven
TTITLE2=After Hours (Live)
EXTD=
EXTT0=
EXTT1=
EXTT2=
PLAYORDER=
